<svg width="238" height="181" viewBox="0 0 238 181" fill="none" xmlns="http://www.w3.org/2000/svg">
<path d="M4.11059 157.198C2.07074 148.182 3.93934 139.196 11.8897 132.919C15.3046 130.222 17.2809 124.01 16.9728 119.898C16.6396 115.451 13.8267 112.315 11.0943 109.061C7.55878 104.85 4.18748 100.377 2.22073 95.1923C-0.233189 88.7234 -0.107872 80.8221 4.32452 75.5096C8.96452 69.9485 15.7254 69.3528 22.4831 70.0321C30.4817 70.8362 38.1932 72.6635 46.3143 72.1069C54.2747 71.5614 62.3649 68.9264 68.0271 63.3046C70.6686 60.6819 72.6954 57.507 74.501 54.2518C81.0175 42.5041 86.0713 30.9613 95.762 21.3333C112.699 4.50569 138.491 -1.27802 161.746 1.06559C177.941 2.69759 195.77 9.80494 204.963 23.9464C211.62 34.186 212.724 46.2136 209.922 57.9438C206.923 70.4968 199.128 81.8734 199.558 95.1825C199.685 99.0843 200.741 103.283 203.819 105.684C205.678 107.133 208.037 107.741 210.319 108.331C221.195 111.145 238.499 115.73 237.446 130.097C236.454 143.651 230.266 147.987 207.659 151.754C189.226 154.826 170.79 157.875 152.356 160.931C125.257 165.424 98.1288 169.772 71.0601 174.412L48.2881 178.316C42.93 179.234 37.5365 180.156 32.1006 180.095C26.6648 180.035 21.1259 178.935 16.5023 176.076C11.85 173.199 8.35507 168.659 6.21115 163.626C5.30788 161.506 4.59771 159.351 4.11059 157.198Z" fill="url(#paint0_linear_402_3)"/>
<defs>
<linearGradient id="paint0_linear_402_3" x1="163" y1="97.5" x2="-2.5" y2="138.5" gradientUnits="userSpaceOnUse">
<stop stop-color="#C569FD" stop-opacity="0.81"/>
<stop offset="1" stop-color="#0015FD" stop-opacity="0.61"/>
</linearGradient>
</defs>
</svg>
